<svg width="33" height="40" viewBox="0 0 33 40" fill="none" xmlns="http://www.w3.org/2000/svg">
<path fill-rule="evenodd" clip-rule="evenodd" d="M29.5891 35.4011L17.5106 39.9785C17.5092 39.979 17.5078 39.9796 17.5064 39.9802L17.5064 35.8771C17.5064 34.7972 17.9225 33.7587 18.6685 32.9767L22.5907 28.8654C23.8341 27.5621 24.5276 25.8312 24.5276 24.0314L24.5276 22.18C26.1639 21.6026 27.3361 20.0448 27.3361 18.2137C27.3361 15.8911 25.45 14.0082 23.1234 14.0082C20.7967 14.0082 18.9106 15.8911 18.9106 18.2137C18.9106 20.0448 20.0829 21.6026 21.7191 22.18L21.7191 24.0314C21.7191 25.1113 21.303 26.1498 20.557 26.9318L16.6348 31.0431C16.4441 31.2429 16.2664 31.4528 16.1021 31.6715C15.9378 31.4528 15.7601 31.2429 15.5695 31.0431L11.6472 26.9318C10.9012 26.1498 10.4851 25.1113 10.4851 24.0314L10.4851 22.18C12.1213 21.6026 13.2936 20.0448 13.2936 18.2137C13.2936 15.8911 11.4075 14.0082 9.08084 14.0082C6.7542 14.0082 4.86808 15.8911 4.86808 18.2137C4.86808 20.0448 6.04036 21.6026 7.67659 22.18L7.67659 24.0314C7.67659 25.8312 8.37011 27.5621 9.61349 28.8654L13.5357 32.9767C14.2817 33.7587 14.6979 34.7972 14.6979 35.8771L14.6979 40C14.6964 39.9995 14.695 39.9989 14.6936 39.9984L2.61761 35.4235C1.04655 34.8115 0 33.3065 0 31.5999L1.91217e-06 18.3826C2.77078e-06 8.56122 6.30147 2.98896 14.9546 0.182845C15.6983 -0.0609484 16.5035 -0.0609483 17.2496 0.182845C25.9052 2.98896 32.2042 8.54132 32.2042 18.3826L32.2042 31.5999C32.2018 33.294 31.1577 34.809 29.5866 35.4036L29.5891 35.4011Z" fill="url(#paint0_radial_272_2081)"/>
<defs>
<radialGradient id="paint0_radial_272_2081" cx="0" cy="0" r="1" gradientUnits="userSpaceOnUse" gradientTransform="translate(-4.86808 4.10744) rotate(37.6295) scale(53.6659 51.3858)">
<stop stop-color="white"/>
<stop offset="1" stop-color="#A7A8FF"/>
</radialGradient>
</defs>
</svg>
